<?xml version="1.0" standalone="no"?><!DOCTYPE svg PUBLIC "-//W3C//DTD SVG 1.1//EN" "http://www.w3.org/Graphics/SVG/1.1/DTD/svg11.dtd"><svg t="1639554125825" class="icon" viewBox="0 0 1024 1024" version="1.1" xmlns="http://www.w3.org/2000/svg" p-id="6871" xmlns:xlink="http://www.w3.org/1999/xlink" width="200" height="200"><defs><style type="text/css"></style></defs><path d="M282.2 409.1v-4.7c0-18.6 14.9-33.9 33.2-33.9h26.5c18.2 0 33.2 15.2 33.2 33.9v4.9c0 18.7 4.7 20.5 22.9 20.5h231.1c16.9 0 18.6-2.3 18.6-17.9v-7.5c0-18.6 14.9-33.9 33.2-33.9h25.8c18.2 0 33.2 15.2 33.2 33.9v5.9c0 16.7 5.6 19.5 21.8 19.5h127.5c17.3 0 22.2-4.8 22.2-21.6v-37.8c0-37.3-29.9-67.7-66.3-67.7H178.3c-36.5 0-66.3 30.5-66.3 67.7v35.5c0 19.1 5.5 24 26 24h120.5c19.3-0.1 23.7-2.2 23.7-20.8z m0 0M739.8 498.8v7.2c0 18.6-14.9 33.9-33.2 33.9h-25.8c-18.2 0-33.2-15.2-33.2-33.9v-6.7c0-14.6-4.1-18.7-18.9-18.7H398.9c-18.9 0-23.8 4.2-23.8 21v4.4c0 18.6-14.9 33.9-33.2 33.9h-26.5c-18.2 0-33.2-15.2-33.2-33.9v-2.7c0-19.8-4.9-22.7-22.9-22.7h-122c-20.2 0-25.4 5.1-25.4 25.4v338.5c0 37.3 29.9 67.7 66.3 67.7h666.6c36.5 0 66.3-30.5 66.3-67.7V500.9c0-15.2-6.4-20.3-20.4-20.3H762.4c-17.8 0-22.6 3.1-22.6 18.2z m0 0" p-id="6872" fill="#1296db"></path><path d="M353.8 477.5c0 18.2-11.1 33.2-24.8 33.2-13.6 0-24.8-14.9-24.8-33.2v-40.8c0-18.2 11.1-33.2 24.8-33.2 13.6 0 24.8 14.9 24.8 33.2v40.8z m0 0M718.9 477.5c0 18.2-11.1 33.2-24.8 33.2-13.6 0-24.8-14.9-24.8-33.2v-40.8c0-18.2 11.1-33.2 24.8-33.2 13.6 0 24.8 14.9 24.8 33.2v40.8z m0 0M372.4 267.1c21.3-57.6 75.8-98.6 139.6-98.6s118.3 41 139.6 98.6c0 0 4.5 19 30.8 19s26.3-19 26.3-19C685.4 178.4 606.2 113 512 113s-173.5 65.4-196.7 154.1c0 0-1.4 16.6 25.8 16.6s31.3-16.6 31.3-16.6z m0 0" p-id="6873" fill="#1296db"></path></svg>