<?xml version="1.0" standalone="no"?><!DOCTYPE svg PUBLIC "-//W3C//DTD SVG 1.1//EN" "http://www.w3.org/Graphics/SVG/1.1/DTD/svg11.dtd"><svg t="1639554198612" class="icon" viewBox="0 0 1024 1024" version="1.1" xmlns="http://www.w3.org/2000/svg" p-id="7803" xmlns:xlink="http://www.w3.org/1999/xlink" width="200" height="200"><defs><style type="text/css"></style></defs><path d="M513.7 706.2c-6.4 0-12.8 0-25.6-6.4L232.4 559.2V719c0 6.4 6.4 19.2 12.8 19.2l262.1 121.5h19.2l255.7-121.5c6.4-6.4 12.8-12.8 12.8-19.2V559.2L539.3 699.8c-12.8 6.4-19.2 6.4-25.6 6.4z" p-id="7804" fill="#1296db"></path><path d="M948.5 386.5l-422-217.4c-6.4-6.4-19.2-6.4-25.6 0l-422 217.4c-12.8 6.4-19.2 19.2-12.8 32 0 6.4 6.4 6.4 12.8 12.8l153.4 83.1 268.5 147.1c6.4 6.4 12.8 6.4 25.6 0L795 514.4l83.1-44.8v332.5c0 12.8 12.8 25.6 25.6 19.2 12.8 0 19.2-12.8 19.2-19.2V437.7l25.6-12.8c12.7-6.4 18.6-25.4 0-38.4z" p-id="7805" fill="#1296db"></path></svg>