<?xml version="1.0" standalone="no"?><!DOCTYPE svg PUBLIC "-//W3C//DTD SVG 1.1//EN" "http://www.w3.org/Graphics/SVG/1.1/DTD/svg11.dtd"><svg t="1639553950600" class="icon" viewBox="0 0 1194 1024" version="1.1" xmlns="http://www.w3.org/2000/svg" p-id="5985" xmlns:xlink="http://www.w3.org/1999/xlink" width="233.203125" height="200"><defs><style type="text/css"></style></defs><path d="M644.830581 14.251412l0.852612 0.596829 266.35604 204.371136v91.229502h91.826331c71.278377 0 129.256004 53.629305 131.558057 120.474099v516.938756h18.416423c21.997394 0 39.816988 16.79646 39.816988 37.600196 0 20.462692-17.308027 37.17389-38.879115 37.685458H786.619984V795.755723c-1.705224-95.492563-83.982298-172.39818-185.187362-172.39818-101.290325 0-183.482138 76.905617-185.187363 172.39818V1023.147388H39.816988A38.793854 38.793854 0 0 1 0 985.46193c0-20.462692 17.308027-37.17389 38.879115-37.600196h25.407842V435.015516c0-68.123712 57.721844-123.458242 129.426527-124.481376H287.671345V218.963593L557.267311 14.677718A73.495169 73.495169 0 0 1 644.830581 14.251412zM604.502025 698.643198h1.705225c57.551321 0.852612 103.848162 45.358967 103.848161 100.011407V1023.147388H498.863378V798.654605c0-55.249268 47.319975-100.011407 105.638647-100.011407z m363.127522-115.955255h-0.937874a38.793854 38.793854 0 0 0-39.305421 37.173891c-0.255784 20.547953 17.052243 37.514935 38.708593 38.026502h0.596828l33.678181 0.426306h0.937873a38.793854 38.793854 0 0 0 39.305421-37.259151 38.708592 38.708592 0 0 0-38.708592-38.111764h-0.596829l-33.67818-0.341045z m-768.203561 0h-0.937874a38.793854 38.793854 0 0 0-39.305421 37.173891c-0.255784 20.547953 17.052243 37.514935 38.623331 38.026502h0.68209l33.678181 0.426306h0.852612a38.793854 38.793854 0 0 0 39.390682-37.259151 38.708592 38.708592 0 0 0-38.708592-38.111764h-0.596829l-33.67818-0.341045z m522.651257-112.203761l-247.939618 1.534702h-0.852612a38.708592 38.708592 0 0 0-38.708592 37.85598 38.793854 38.793854 0 0 0 39.390682 37.429674h0.68209l247.939617-1.44944h0.852612a38.708592 38.708592 0 0 0 38.623332-37.941242 38.793854 38.793854 0 0 0-40.072772-37.429674z m0-162.166834l-247.939618 1.449441h-0.852612a38.708592 38.708592 0 0 0-38.708592 37.85598 38.793854 38.793854 0 0 0 39.390682 37.514935h0.68209l247.939617-1.534702h0.852612a38.708592 38.708592 0 0 0 38.623332-37.85598 38.793854 38.793854 0 0 0-40.072772-37.514935z" p-id="5986" fill="#1296db"></path></svg>